<?xml version="1.0" encoding="utf-8"?>
<!-- Generator: Adobe Illustrator 21.0.2, SVG Export Plug-In . SVG Version: 6.00 Build 0)  -->
<svg version="1.1" id="Layer_1" xmlns="http://www.w3.org/2000/svg" xmlns:xlink="http://www.w3.org/1999/xlink" x="0px" y="0px"
	 viewBox="0 0 15 15" style="enable-background:new 0 0 15 15;" xml:space="preserve">
<style type="text/css">
	.st0{fill-rule:evenodd;clip-rule:evenodd;}
</style>
<g>
	<path class="st0" d="M6.1,6.9c0,0.8,0,1.5,0,2.3c0,0,0,0,0.1,0c0.6,0,1.2,0,1.8,0C8,9.2,8,9.2,8,9.3c0,1.9,0,3.8,0,5.7
		C8,15,8,15,8,15c-2.4,0-4.7,0-7.1,0c-0.4,0-0.8-0.3-0.8-0.7c0-0.1,0-0.1,0-0.2c0-2.9,0-5.8,0-8.7c0-1.5,0-3,0-4.5
		c0-0.2,0.1-0.4,0.2-0.6C0.3,0.1,0.5,0,0.8,0c0,0,0.1,0,0.1,0c4.4,0,8.8,0,13.3,0c0.2,0,0.3,0,0.5,0.1C14.9,0.3,15,0.5,15,0.8
		c0,0,0,0,0,0c0,4.4,0,8.8,0,13.3c0,0.2,0,0.4-0.1,0.5c-0.2,0.2-0.4,0.4-0.7,0.4c-1.1,0-2.1,0-3.2,0c-0.2,0-0.4,0-0.6,0
		c-0.1,0-0.1,0-0.1-0.1c0-0.9,0-1.9,0-2.8c0-1,0-1.9,0-2.9c0-0.1,0-0.1,0.1-0.1c0.6,0,1.2,0,1.8,0c0,0,0,0,0,0c0,0,0,0,0,0
		c0-0.2,0.1-0.5,0.1-0.7c0-0.2,0.1-0.5,0.1-0.7c0-0.2,0.1-0.5,0.1-0.7c0,0,0-0.1,0-0.1c0,0,0,0-0.1,0c-0.7,0-1.4,0-2.1,0
		c-0.1,0-0.1,0-0.1-0.1c0-0.5,0-1,0-1.5c0-0.1,0-0.3,0.1-0.4c0.1-0.3,0.3-0.4,0.5-0.5c0.2-0.1,0.4-0.1,0.5-0.1c0.4,0,0.7,0,1.1,0
		c0,0,0,0,0.1,0c0-0.7,0-1.4,0-2c-0.1,0-0.1,0-0.2,0c-0.2,0-0.5,0-0.7,0c-0.3,0-0.6,0-1,0c-0.5,0-1.1,0.1-1.5,0.4
		C8.8,3,8.4,3.4,8.2,4C8.1,4.2,8.1,4.5,8,4.8C8,5,8,5.1,8,5.3c0,0.5,0,1,0,1.5C8,6.9,8,6.9,8,6.9C7.3,6.9,6.7,6.9,6.1,6.9
		C6.1,6.9,6.1,6.9,6.1,6.9z"/>
</g>
</svg>
