<?xml version="1.0" encoding="utf-8"?>
<!-- Generator: Adobe Illustrator 21.0.2, SVG Export Plug-In . SVG Version: 6.00 Build 0)  -->
<svg version="1.1" id="Layer_1" xmlns="http://www.w3.org/2000/svg" xmlns:xlink="http://www.w3.org/1999/xlink" x="0px" y="0px"
	 viewBox="0 0 15 15" style="enable-background:new 0 0 15 15;" xml:space="preserve">
<style type="text/css">
	.st0{fill-rule:evenodd;clip-rule:evenodd;}
</style>
<g>
	<path class="st0" d="M0,7.4c0-1.2-0.1-2.4,0-3.5c0.2-2.2,1.5-3.6,3.7-3.8C6.2,0,8.7,0,11.1,0.1c2.4,0.2,3.7,1.7,3.8,4.1
		c0.1,2.2,0.1,4.4,0,6.5c-0.1,2.4-1.5,3.9-3.8,4.1c-2.4,0.2-4.8,0.2-7.2,0c-2.4-0.2-3.7-1.7-3.8-4.1C0,9.7,0,8.5,0,7.4
		C0,7.4,0,7.4,0,7.4z M1.4,7.5C1.4,7.5,1.4,7.5,1.4,7.5c0,1.2,0,2.3,0,3.5c0.1,1.4,1,2.5,2.4,2.5c2.4,0.1,4.8,0.1,7.2,0
		c1.5-0.1,2.4-1.1,2.5-2.6c0-2.3,0-4.5,0-6.8c0-1.5-1.1-2.6-2.6-2.6c-2.2-0.1-4.5-0.1-6.7,0c-1.7,0-2.7,1.1-2.7,2.8
		C1.4,5.3,1.4,6.4,1.4,7.5z"/>
	<path class="st0" d="M11.3,7.5c0,2.2-1.7,3.8-3.8,3.8c-2.2,0-3.9-1.7-3.9-3.8c0-2.2,1.7-3.9,3.9-3.9C9.6,3.7,11.3,5.4,11.3,7.5z
		 M7.5,10C8.8,10,10,8.8,10,7.5C10,6.1,8.8,5,7.5,5C6.1,5,5,6.1,5,7.5C5,8.8,6.1,10,7.5,10z"/>
	<path class="st0" d="M11.4,2.6c0.5,0,0.9,0.4,0.9,0.9c0,0.5-0.4,0.9-0.9,1c-0.5,0-0.9-0.4-0.9-0.9C10.5,3.1,10.9,2.6,11.4,2.6z"/>
</g>
</svg>
